<svg width="15" height="21" viewBox="0 0 15 21" fill="none" xmlns="http://www.w3.org/2000/svg">
<path fill-rule="evenodd" clip-rule="evenodd" d="M0.794392 0C0.34938 0 0 0.365159 0 0.801455V20.0246C0 20.3509 0.196881 20.6488 0.503708 20.7705C0.811719 20.8927 1.16048 20.8091 1.38139 20.5647L7.37521 13.933L13.369 20.5647C13.5899 20.8091 13.9387 20.8927 14.2467 20.7705C14.5535 20.6488 14.7504 20.3509 14.7504 20.0246V0.801455C14.7504 0.365159 14.401 0 13.956 0H0.794392ZM1.75127 17.5322V1.76822H12.9991V17.5322L8.02201 12.0255C7.87228 11.8598 7.6596 11.764 7.43501 11.764H7.3154C7.09082 11.764 6.87813 11.8598 6.72841 12.0255L1.75127 17.5322Z" fill="#A3A3A3"/>
</svg>
