<svg width="21" height="20" viewBox="0 0 21 20" fill="none" xmlns="http://www.w3.org/2000/svg">
<path d="M14.8278 0H6.11648C3.15815 0 0.751343 2.40692 0.751343 5.36525V14.0766C0.751343 17.0351 3.15815 19.4419 6.11648 19.4419H14.8278C17.7864 19.4419 20.1932 17.035 20.1932 14.0766V5.36525C20.1933 2.40692 17.7864 0 14.8278 0ZM18.4684 14.0766C18.4684 16.0839 16.8353 17.7169 14.828 17.7169H6.11648C4.1093 17.717 2.47632 16.0839 2.47632 14.0766V5.36525C2.47632 3.35807 4.1093 1.72498 6.11648 1.72498H14.8278C16.8351 1.72498 18.4682 3.35807 18.4682 5.36525V14.0766H18.4684Z" fill="#2FACEB"/>
<path d="M10.4722 4.71155C7.70983 4.71155 5.46252 6.95885 5.46252 9.72123C5.46252 12.4835 7.70983 14.7307 10.4722 14.7307C13.2346 14.7307 15.4819 12.4835 15.4819 9.72123C15.4819 6.95885 13.2346 4.71155 10.4722 4.71155ZM10.4722 13.0056C8.66109 13.0056 7.1875 11.5322 7.1875 9.72111C7.1875 7.90989 8.66098 6.43641 10.4722 6.43641C12.2834 6.43641 13.7569 7.90989 13.7569 9.72111C13.7569 11.5322 12.2833 13.0056 10.4722 13.0056Z" fill="#2FACEB"/>
<path d="M15.692 3.24878C15.3596 3.24878 15.0332 3.38333 14.7984 3.61907C14.5626 3.85367 14.427 4.18027 14.427 4.51376C14.427 4.84622 14.5627 5.1727 14.7984 5.40845C15.033 5.64305 15.3596 5.77875 15.692 5.77875C16.0255 5.77875 16.3509 5.64305 16.5867 5.40845C16.8224 5.1727 16.957 4.84611 16.957 4.51376C16.957 4.18027 16.8224 3.85367 16.5867 3.61907C16.3521 3.38333 16.0255 3.24878 15.692 3.24878Z" fill="#2FACEB"/>
</svg>
