<svg width="27" height="15" viewBox="0 0 27 15" fill="none" xmlns="http://www.w3.org/2000/svg">
<path d="M26.0218 13.361C26.0494 13.407 26.079 13.4644 26.1108 13.5336C26.1426 13.6027 26.1745 13.7248 26.2069 13.8995C26.2385 14.0746 26.2365 14.2312 26.2 14.3693C26.1633 14.5072 26.0496 14.634 25.8582 14.7491C25.6672 14.864 25.3979 14.9219 25.0519 14.9219L21.5532 14.977C21.3342 15.023 21.0792 15 20.7881 14.908C20.4964 14.8159 20.2595 14.7146 20.077 14.604L19.8038 14.4383C19.5306 14.2447 19.2117 13.9503 18.8471 13.5543C18.4827 13.1585 18.1707 12.8019 17.911 12.4841C17.6512 12.1666 17.3734 11.8994 17.0772 11.683C16.7808 11.4665 16.5235 11.3952 16.3048 11.4688C16.2775 11.4782 16.2412 11.494 16.1958 11.5171C16.1502 11.5401 16.0723 11.607 15.9631 11.7175C15.8541 11.8277 15.7562 11.9636 15.6694 12.1247C15.5825 12.2859 15.5049 12.5253 15.4368 12.8429C15.3686 13.1605 15.3388 13.5172 15.3481 13.9131C15.3481 14.051 15.3322 14.1778 15.3002 14.2929C15.2686 14.4077 15.2344 14.4931 15.1978 14.5481L15.1435 14.6173C14.9793 14.7921 14.7378 14.8934 14.419 14.9212H12.8473C12.2003 14.9578 11.5352 14.882 10.8519 14.6931C10.1684 14.5044 9.56942 14.2604 9.05453 13.9614C8.53973 13.6619 8.07056 13.3581 7.64677 13.0496C7.22307 12.7412 6.90196 12.4765 6.68329 12.2555L6.34154 11.924C6.25044 11.832 6.12512 11.6941 5.96557 11.5097C5.80621 11.3257 5.4805 10.9067 4.98845 10.2529C4.49639 9.59939 4.01348 8.90412 3.53971 8.16744C3.06603 7.43129 2.50787 6.4597 1.86554 5.25355C1.22322 4.0474 0.628726 2.79524 0.0820493 1.49689C0.0273338 1.34969 0 1.22537 0 1.12408C0 1.02273 0.0137866 0.949108 0.0411204 0.903008L0.0958359 0.820241C0.232553 0.645273 0.4922 0.557668 0.874874 0.557668L4.6197 0.530191C4.72913 0.548525 4.83378 0.578324 4.93406 0.619877C5.03421 0.661478 5.10721 0.700516 5.15269 0.73728L5.22109 0.778833C5.36686 0.880128 5.47624 1.02733 5.54905 1.22068C5.7312 1.68105 5.94072 2.15763 6.17778 2.65032C6.41469 3.14281 6.60138 3.51809 6.73805 3.77583L6.95667 4.17646C7.22091 4.72889 7.47606 5.20764 7.72197 5.61272C7.96807 6.01781 8.18904 6.33315 8.38497 6.55882C8.5809 6.78443 8.76994 6.96158 8.95209 7.09054C9.13428 7.2195 9.28909 7.28404 9.41676 7.28404C9.54424 7.28404 9.66741 7.26067 9.78584 7.21481C9.80394 7.20572 9.82672 7.18255 9.85406 7.14578C9.88144 7.10902 9.93606 7.00772 10.0182 6.842C10.1001 6.67632 10.1616 6.45994 10.2027 6.19292C10.2438 5.9259 10.2869 5.55308 10.3325 5.07418C10.378 4.59547 10.378 4.02002 10.3325 3.34777C10.3144 2.97964 10.2664 1.01439 10.2027 0.710601C10.2027 0.710601 10.2027 0.233613 12.5929 0.0470738C13.3402 0.0563616 13.9909 -0.0633537 14.4739 0.0470835C14.6559 0.093232 14.8088 0.155344 14.9317 0.233613C15.0545 0.311978 15.148 0.422367 15.2119 0.565069C15.2754 0.707917 15.3236 0.855263 15.355 1.00706C15.3868 1.15905 15.4029 1.36846 15.4029 1.63548C15.4029 1.90251 15.3986 2.15579 15.3893 2.39519C15.38 2.63435 15.3688 2.95899 15.355 3.36871C15.3415 3.77844 15.3348 4.15822 15.3348 4.50816C15.3348 4.60945 15.3305 4.80266 15.321 5.08821C15.3118 5.37361 15.3098 5.59483 15.3141 5.75122C15.3187 5.9078 15.3347 6.09404 15.3619 6.31056C15.3893 6.52694 15.4415 6.70655 15.5192 6.84925C15.5965 6.99195 15.699 7.10471 15.8265 7.18763C15.8997 7.20601 15.977 7.22439 16.0591 7.24292C16.141 7.26144 16.2593 7.2108 16.4143 7.09093C16.5695 6.97111 16.7423 6.81249 16.9338 6.6145C17.1249 6.4167 17.3619 6.10812 17.6442 5.6893C17.927 5.27033 18.2366 4.77552 18.5738 4.20456C19.1206 3.24705 19.6078 2.21123 20.0364 1.09713C20.0727 1.00508 20.1183 0.924293 20.1727 0.855457C20.2274 0.786379 20.2775 0.738054 20.3231 0.710577L20.3775 0.669025L20.446 0.634438L20.6237 0.592884C20.7423 0.565214 20.8334 0.563086 20.8972 0.585918L24.8332 0.558442C25.1887 0.512439 25.4801 0.523855 25.7082 0.592884C25.9357 0.662059 26.0769 0.737909 26.1317 0.820821L26.2131 0.958541C26.4228 1.54788 25.7393 2.90118 24.1629 5.01898C23.9443 5.31368 23.6483 5.70483 23.2746 6.19287C22.5641 7.11376 22.1538 7.7165 22.0446 8.0019C21.8899 8.37965 21.9533 8.75247 22.2362 9.12079C22.3908 9.31414 22.7601 9.69179 23.3431 10.2535H23.3569L23.3707 10.2673L23.3842 10.2809L23.4114 10.3085C24.6961 11.5147 25.5664 12.5321 26.0218 13.361Z" fill="#2F80ED"/>
</svg>
